<svg xmlns="http://www.w3.org/2000/svg" width="28.263" height="28.263" viewBox="0 0 28.263 28.263">
  <g id="Icon_feather-instagram" data-name="Icon feather-instagram" transform="translate(1.5 1.5)">
    <path id="Caminho_14" data-name="Caminho 14" d="M9.316,3H21.947a6.316,6.316,0,0,1,6.316,6.316V21.947a6.316,6.316,0,0,1-6.316,6.316H9.316A6.316,6.316,0,0,1,3,21.947V9.316A6.316,6.316,0,0,1,9.316,3Z" transform="translate(-3 -3)" fill="none" stroke="#bebebe" stroke-linecap="round" stroke-linejoin="round" stroke-width="3"/>
    <path id="Caminho_15" data-name="Caminho 15" d="M22.115,16.247a5.053,5.053,0,1,1-4.257-4.257,5.053,5.053,0,0,1,4.257,4.257Z" transform="translate(-4.431 -4.411)" fill="none" stroke="#bebebe" stroke-linecap="round" stroke-linejoin="round" stroke-width="3"/>
    <path id="Caminho_16" data-name="Caminho 16" d="M26.25,9.75h0" transform="translate(-6.671 -4.066)" fill="none" stroke="#bebebe" stroke-linecap="round" stroke-linejoin="round" stroke-width="3"/>
  </g>
</svg>
