<svg xmlns="http://www.w3.org/2000/svg" width="26.338" height="30.316" viewBox="0 0 26.338 30.316">
  <path id="Icon_simple-tiktok" data-name="Icon simple-tiktok" d="M16.2.025C17.856,0,19.5.013,21.14,0a7.868,7.868,0,0,0,2.211,5.267,8.908,8.908,0,0,0,5.356,2.261v5.09A13.52,13.52,0,0,1,23.4,11.394a15.607,15.607,0,0,1-2.046-1.175c-.013,3.688.013,7.377-.025,11.053a9.648,9.648,0,0,1-1.705,4.977A9.411,9.411,0,0,1,12.159,30.3,9.21,9.21,0,0,1,7.006,29,9.525,9.525,0,0,1,2.4,21.789c-.025-.632-.038-1.263-.013-1.882A9.509,9.509,0,0,1,13.41,11.469c.025,1.869-.051,3.739-.051,5.608a4.334,4.334,0,0,0-5.533,2.678,5.011,5.011,0,0,0-.177,2.034,4.3,4.3,0,0,0,4.421,3.625,4.244,4.244,0,0,0,3.5-2.034,2.914,2.914,0,0,0,.518-1.339c.126-2.261.076-4.509.088-6.77.013-5.09-.013-10.168.025-15.246Z" transform="translate(-2.369)" fill="#bebebe"/>
</svg>
