<?xml version="1.0" encoding="utf-8"?>
<!-- Generator: Adobe Illustrator 19.0.0, SVG Export Plug-In . SVG Version: 6.00 Build 0)  -->
<svg version="1.1" id="Layer_1" xmlns="http://www.w3.org/2000/svg" xmlns:xlink="http://www.w3.org/1999/xlink" x="0px" y="0px"
	 viewBox="-220 367 170.6 60" style="enable-background:new -220 367 170.6 60;" xml:space="preserve">
<style type="text/css">
	.st0{fill:#FFFFFF;}
	.st1{fill:#FFFFFF;stroke:#EB008B;stroke-width:0.5;}
	.st2{fill:none;stroke:#F6921E;stroke-width:0.8;stroke-linecap:round;stroke-linejoin:round;}
	.st3{fill:#FF7AB9;}
</style>
<g>
	<g>
		<path class="st0" d="M-57.1,380.6L-57.1,380.6l-0.1-0.1c-3.8-1.8-7.6-0.8-9.1-0.3l-0.1,0l-0.2,0.1c-1.5,0.7-3.2,1.6-4.7,3
			c-0.2-0.5-0.5-0.9-0.8-1.3c-1.4-1.8-3.4-1.9-4-2l-0.1,0l-4.9,0c-0.9,0-1.8,0.3-2.6,0.7c-1.3-4.9-5.5-12.1-18.3-9.6
			c-3.6,0.7-6.4,2.1-9,3.2l-1.8,0.9c-0.2,0.1-0.3,0.2-0.5,0.3c0-0.1,0-0.2,0-0.3c0-0.7-0.1-1.4-0.3-2c-0.4-1.5-1.5-3.6-4.2-5.2
			c-4-2.3-8.9-0.8-11.3,1.9l0.1-0.1c-1.6,1.7-2.5,3.9-2.5,6.4c0,0.5,0,1,0.1,1.5c0,0,0,0,0,0c0,0-0.1-0.8-0.1-0.8s0.1,1.1,0.1,1.1
			c0,0,0,0.1,0,0.1c0.2,0.8,0.4,1.6,0.7,2.3c-0.8-0.2-1.3-0.2-1.5-0.2l-0.1,0h-12.2c-1.4,0-2.7,0.6-3.8,1.6c-2.5-1.6-5-1.7-5.3-1.8
			l-0.1,0h-0.1h-12.2c-2.1,0-4.2,1.4-5,3.4l0,0.1c0-0.2,0-0.3-0.1-0.4c-0.5-4.2-3.1-4.8-4.6-4.8c-0.9,0-1.6,0.2-2.1,0.5
			c0-0.1,0-0.3,0-0.4c0-2.8-1.6-5.3-4.2-6.4l0,0c0,0,0,0,0,0c-0.8-0.4-7.3-3.5-17-2.2c-1.7,0.2-4.8,1.3-5,1.4
			c-7.3,2.6-13.2,9.4-15.3,17.6c-0.6,2.1-0.9,4.3-1,6.5c0,0,0,0.7,0,0.7c0,9.4,4.3,15.1,8,18.2c3,2.6,6.4,3.6,9.1,4.2l0.1,0l1.4,0.2
			l0.1,0l0.7,0.1l0,0c0.9,0.1,2.4,0.1,4.3-0.1l0.1,0l0.2,0l0.1,0c8.2-1.6,12.8-8,14-10c0.5-0.8,0.9-1.4,1.2-1.9
			c0.5,3,1.1,6.7,1.1,6.7l0,0.2c0.7,3.8,3.6,4.2,4.9,4.2c0,0,9.9,0,9.9,0c1.2,0,2.5-0.3,3.5-1.1c0.9-0.7,2-1.9,2.3-4.1
			c0,0,0.5-3.7,0.8-6.3c2.5-0.1,5.6-0.6,8.3-2c-0.6,4.4-1.1,8-1.1,8c0,0.2,0,0.4,0,0.7c0,0.8,0.2,1.9,0.9,2.8
			c0.6,0.8,1.9,2.1,4.4,2.1c0.1,0,1.9,0,2.2,0c0,0,0.1,0,0.1,0c0,0,0.1,0,0.1,0s0,0-0.1,0c0.9,0,2.4-0.3,3.4-1.1
			c0.9-0.7,1.9-1.9,2.2-4c0,0,0.2-1.4,0.4-3c0.5,0.3,0.9,0.6,1.3,1l0.1,0.1l0.2,0.1c1.2,0.8,2.7,2,4.4,3.4
			c7.8,6.5,18.3,10.9,28.9,12.2c10.6,1.2,20.7-0.9,28.8-5.9c0.3,0.2,0.5,0.3,0.8,0.4c1.4,0.5,2.8,0.5,4.2,0c1.4-0.6,2.4-1.6,2.9-3
			c0-0.1,0.1-0.2,0.1-0.2c1.9,0,3.5-0.5,3.9-0.6c0,0,0.2-0.1,0.2-0.1l0.2-0.1c4.5-1.8,10.1-6.3,11.5-17.3l0-0.1l0.1-0.7
			c0.1-1.3,0.2-2.5,0.2-3.6C-49.4,386.1-54.1,382.2-57.1,380.6z M-119.8,375.4c-0.2,0.2-0.4,0.3-0.6,0.4
			C-120.1,375.6-119.8,375.4-119.8,375.4z"/>
	</g>
	<path class="st1" d="M-99.5,386.3"/>
	<path class="st2" d="M-99.5,386.3"/>
	<g>
		<path class="st3" d="M-153.8,384.2h-12.1c-0.5,0-1.1,0.4-1.3,0.9l-0.5,1.3c-0.2,0.5,0,0.9,0.5,0.9h1.4c0.4,0.1,0.7,0.4,0.7,0.9
			l-3.4,24.5c0,0-0.4,1.1,1.2,1.1c1.6,0,2.3,0,2.3,0s1.5,0.2,1.7-1.6c0.1-0.7,1.2-9,1.2-9c0.1-0.6,0.5-0.7,0.7-0.7
			c0.1,0,0.1,0,0.2,0c0,0,0,0,0,0l0,0c5.7,0,12.7-0.4,13.6-9C-146.6,384.5-153.8,384.2-153.8,384.2z M-153.4,393.8
			c-0.8,7-5.8,7.1-7.6,7c-0.3-0.1-0.6-0.4-0.6-0.8l1.8-13.2c0.2-0.4,0.7-0.9,1.3-0.9c0.1,0,0,0,0.1,0
			C-156.4,385.9-152.7,387.4-153.4,393.8z"/>
		<path class="st3" d="M-127.5,377.3C-127.5,377.3-127.5,377.3-127.5,377.3c0,0.1,0,0.2,0,0.2c0,0,0,0,0,0c0.7,3.5,3.1,6.2,11.7,4.5
			c5-1,9-2.9,14.1-3.8c0.5-0.1,0.9-0.2,1.4-0.2c3.6-0.2,7.8,0.7,8.1,6.4l0,0.3c0,1.3-0.2,2.6-0.3,3.4c0,0.1-3.4,24.7-3.4,24.7
			s-0.4,1.1,1.2,1.1s2.3,0,2.3,0s1.5,0.2,1.7-1.6c0.1-0.6,0.8-6.3,1.1-8.3l0,0c0,0,0.2-1.4,0.4-3.4c0.1-0.3,0.4-0.8,0.9-0.8h5.3
			c0.4,0.1,0.7,0.3,0.7,0.8v0l-1.7,12.3c0,0-0.4,1.1,1.2,1.1s2.3,0,2.3,0s1.5,0.2,1.7-1.6c0.1-0.6,0.8-6.3,1.1-8.3l0,0
			c0,0,0.2-1.6,0.5-3.9c0,0,0,0,0,0l0.4-3c0.6-4.4,1.3-9.6,1.5-10.7c0.3-2-1.3-2.1-1.3-2.1l0,0h-4.8c-0.5,0-1.1,0.4-1.3,0.9
			l-0.5,1.3c-0.2,0.5,0,0.9,0.5,0.9h1.4c0.4,0.1,0.7,0.4,0.7,0.9l-1.2,8.5l0,0.2c-0.1,0.4-0.6,0.8-1.1,0.8h0h-5v0
			c-0.5,0-0.8-0.3-0.8-0.8c0.3-2.2,0.6-4.7,0.9-6.8c1.1-5.7,0-8,0.1-7.9c-1.7-7-7.2-8.4-13.7-7.1c-6.2,1.2-9.1,4.7-15.5,6
			c-6.3,1.2-9.2-0.7-9.9-3.9l0,0c-0.1-0.6-0.2-2.8,1.5-4.4c0.3-0.2,0.7-0.5,1.4-0.7c0,0,0,0,0.1,0c0.1,0,0.2-0.1,0.4-0.1
			c0.8-0.1,1.3,0,1.5,0.1c0.1,0,0.2,0.1,0.3,0.2c0,0,0,0,0,0c0,0,0,0,0,0c0.1,0.1,0.2,0.2,0.2,0.4c0,0.1,0.1,0.2,0.1,0.3
			c0,0.4-0.2,0.8-0.6,1c0,0,0,0,0,0c-0.8,0.5-1.4,1.4-1.4,2.4c0,1.5,1.2,2.7,2.7,2.7c0.8,0,1.5-0.3,2-0.9l0,0c0,0,0,0,0.1-0.1
			c0.1-0.2,0.3-0.3,0.4-0.5c0.7-1.2,1.6-4.2-1.8-6.1c-2.3-1.3-5.2-0.1-6.1,1.1C-127,373.6-127.8,375.1-127.5,377.3
			C-127.5,377.3-127.5,377.3-127.5,377.3z"/>
		<path class="st3" d="M-59.1,384.4c-2.5-1.2-5.4-0.4-6.1-0.1c-4.1,1.8-7.8,5.7-8.8,14h0c0,0.3-0.1,0.5-0.1,0.8
			c-1,8.7,2,12.9,5.8,14.6l0,0c0,0,1.3,0.5,2.7,0.5c1.4,0,2.8-0.4,2.8-0.4l0,0c4.2-1.7,8-5.7,9.1-14.1h0c0-0.3,0.1-0.5,0.1-0.8
			C-52.7,390.4-55.5,386.3-59.1,384.4z M-59,399.2c-0.2,1.1-0.4,2.2-0.6,3.3c-1.3,5.3-3.5,9-5.6,9c-0.1,0-0.2,0-0.4,0
			c-2.6-0.4-3.8-6.5-2.7-13.6c1.1-7.1,4-12.6,6.6-12.2C-59.2,386-58,392.1-59,399.2z"/>
		<path class="st3" d="M-69.4,415.6C-69.4,415.6-69.5,415.6-69.4,415.6c-0.1-0.2-0.2-0.4-0.3-0.5c-0.5-0.6-1.6-1.3-3.3-0.2
			c-0.1,0.1-0.2,0.2-0.3,0.2c0,0,0,0,0,0c-3.8,2.8-9.5,4.5-9.5,4.5l0,0c-12.9,3.6-26.2-0.1-36.4-6c0,0,0,0,0,0
			c-0.5-0.3-0.9-0.5-1.4-0.8c0.1-0.2,0.1-0.3,0.1-0.5c0.1-0.6,0.8-6.3,1.1-8.3l0,0c0,0,0.2-1.6,0.5-3.9c0.1-0.9,0.3-1.9,0.4-3
			c0.6-4.4,1.3-9.6,1.5-10.7c0.3-2-1.3-2.1-1.3-2.1l0,0h-4.8c-0.5,0-1.1,0.4-1.3,0.9l-0.5,1.3c-0.2,0.5,0,0.9,0.5,0.9h1.4
			c0.4,0.1,0.7,0.4,0.7,0.9l-2.9,21.2c-0.5-0.4-0.9-0.7-1.3-1.1c-3.6-3-6.1-5-8-6.1c4.1-0.6,7.8-2.6,8.5-8.7c1-9-6.2-9.2-6.2-9.2
			h-12.1c-0.5,0-1.1,0.4-1.3,0.9l-0.5,1.3c-0.2,0.5,0,0.9,0.5,0.9h1.4c0.4,0.1,0.7,0.4,0.7,0.9L-147,413c0,0-0.4,1.1,1.2,1.1
			c1.6,0,2.3,0,2.3,0s1.5,0.2,1.7-1.6c0.1-0.7,1-7.5,1.2-8.8l0.3,0c2.6,1.2,4.9,2.6,6.9,4.2c1.3,0.9,2.8,2,4.7,3.7
			c13.2,11,38.1,17.3,55.5,4.3c0.1-0.1,0.2-0.1,0.2-0.1c0.2-0.1,0.6,0,0.7,0.2c0.1,0.1,0.1,0.2,0.1,0.4c0,0,0,0,0,0
			c0,0.6,0.4,1.1,0.9,1.3c0.7,0.3,1.6-0.1,1.9-0.8C-69.3,416.4-69.3,416-69.4,415.6L-69.4,415.6z M-139.6,401.1
			c-0.4-0.1-0.6-0.4-0.6-0.8l1.8-13.2c0.2-0.4,0.7-0.9,1.3-0.9c0.1,0,0,0,0.1,0c2.1,0,5.8,1.5,5.1,7.9
			C-132.7,401.1-137.8,401.2-139.6,401.1z"/>
		<path class="st3" d="M-97,388.9c1.1,0,1.9-0.9,1.9-1.9c0-0.7-0.4-1.3-0.9-1.6c0,0,0,0,0,0s0,0,0,0c0,0-0.1,0-0.1-0.1v0
			c0,0,0,0,0,0c-1-0.6-2.9-1.4-5.6-1.4c-0.8,0-1.4,0.1-1.8,0.2c-5.3,0.7-11.2,4.1-12.5,14.4h0c0,0.2-0.1,0.5-0.1,0.7
			c-1.4,11.9,5.1,14.9,10.8,15.1c0,0,0.1,0,0.1,0c0,0,0.1,0,0.1,0c0,0,0.1,0,0.1,0l0,0c0.9,0,3.9-0.2,5.7-1.8
			c0.3-0.3,1.8-2.3,0.8-2.5c-0.4-0.1-0.8-0.1-1.1-0.1c-0.6,0-1.1,0.3-1.4,0.7c-0.3,0.5-0.9,0.9-1.2,1.1c0,0-0.1,0.1-0.2,0.1
			c0,0,0,0,0,0c-0.1,0-0.2,0.1-0.3,0.1c-0.8,0.3-1.5,0.3-2.3,0.2c-4.3-0.7-6.7-7.3-5.5-14.7c1.2-7.4,5.6-12.9,9.9-12.2
			c0.5,0.1,0.9,0.2,1.3,0.4h0c0,0,0.4,0.2,0.4,0.8c0,0.1,0,0.2,0,0.3h0c0,0,0,0,0,0C-99,388.1-98.1,388.9-97,388.9z"/>
		<path class="st3" d="M-176.1,382.5c0,0-0.1-0.4-0.4-0.4c-0.2,0-0.3,0.1-0.5,0.3c0,0-3.4,3.5-3.6,3.7c-0.4,0.5-0.7,1.4-0.7,1.4h0
			c0,0-1.7,4.7-4.3,11.7c-0.8,2.1-3.9,11-10.6,13.2c-2.4,0.7-4.8,0.6-6.5,0.1c-6.9-2.3-9.6-13-6.2-22.9c3.1-9,10.1-15.3,16.5-14.6
			l0,0c0,0,0.7,0.1,1.5,0.2c0,0,0,0,0,0c0.9,0.2,1.8,0.5,2.2,1l0,0c0.3,0.3,0.6,1.3,0.8,2.2c0,0,0,0,0,0c0.1,1.4,1.3,2.4,2.7,2.4
			c1.5,0,2.7-1.2,2.7-2.7c0-1.1-0.7-2.1-1.7-2.5c0,0-0.1,0-0.1-0.1c0,0-5.8-3-14.7-1.7c-0.8,0.1-3.5,0.9-4,1.1
			c-5.9,2.1-10.9,7.6-12.8,14.8c-0.5,1.7-0.8,3.6-0.8,5.5c-0.2,7.1,2.6,12.3,6.6,15.6c2,1.8,4.5,2.7,7.2,3.2
			c0.4,0.1,0.8,0.1,1.2,0.2c0.2,0,0.4,0.1,0.7,0.1c0,0,0,0,0,0c0.8,0.1,2,0.1,3.4-0.1c0,0,0.1,0,0.1,0c5.8-1.1,9.6-5.5,11.3-8.1
			c1.7-2.7,1.9-3.2,2.4-4.1c0.5-0.9,0.9-0.9,1.5-0.9c0.1,0,1.2,0,2.7,0c1.2,0,1.4,0.6,1.5,1.3l1.7,10.2c0,0,0.2,0.8,1.2,0.8h1.9h0.6
			h0.8c0.5,0,1-0.3,0.8-1.8C-171.5,410.5-176.1,382.5-176.1,382.5z M-179.8,399.5c0,0-1,0-2,0c-1.2,0-0.8-1.1-0.8-1.1
			c0.2-0.7,2.1-6.9,2.3-7.5l0.2,0l1.1,7.4C-178.8,399.5-179.8,399.5-179.8,399.5z"/>
	</g>
</g>
</svg>
